<?xml version="1.0" standalone="no"?>
<!DOCTYPE svg PUBLIC "-//W3C//DTD SVG 20010904//EN"
 "http://www.w3.org/TR/2001/REC-SVG-20010904/DTD/svg10.dtd">
<svg version="1.0" xmlns="http://www.w3.org/2000/svg"
 width="826.000000pt" height="826.000000pt" viewBox="0 0 826.000000 826.000000"
 preserveAspectRatio="xMidYMid meet">
<metadata>
Created by potrace 1.11, written by Peter Selinger 2001-2013
</metadata>
<g transform="translate(0.000000,826.000000) scale(0.100000,-0.100000)"
fill="#000000" stroke="none">
<path d="M3602 8140 c-46 -10 -199 -39 -340 -65 l-257 -47 -340 -130 c-187
-72 -356 -138 -375 -148 -19 -10 -173 -103 -341 -207 l-305 -189 -274 -249
-275 -249 -227 -297 -227 -297 -172 -344 -172 -343 -103 -361 -104 -361 -35
-375 -36 -375 35 -373 36 -373 101 -356 102 -356 173 -345 173 -345 224 -295
224 -295 276 -249 276 -250 319 -197 319 -197 354 -135 354 -135 378 -71 378
-71 357 0 c196 0 382 4 412 9 30 6 208 39 395 75 325 62 347 68 510 131 94 36
248 96 343 132 164 63 190 77 494 264 l321 199 279 252 279 253 230 304 230
303 164 329 165 329 104 362 104 363 28 280 c38 374 38 567 0 940 l-28 280
-104 363 -105 363 -164 330 -165 329 -231 303 -230 302 -279 252 -279 253
-318 196 -318 196 -350 135 -350 136 -340 66 -340 66 -435 1 c-384 1 -445 -1
-518 -16z m231 -120 c-62 -5 -151 -13 -199 -20 -47 -6 -89 -9 -92 -6 -3 4 3 6
14 7 10 0 51 7 89 14 39 7 122 13 185 13 l115 -1 -112 -7z m712 -5 l60 -14
-59 6 c-33 3 -105 9 -160 13 l-101 7 100 1 c55 1 127 -5 160 -13z m-1028 -31
c-3 -3 -12 -4 -19 -1 -8 3 -5 6 6 6 11 1 17 -2 13 -5z m-220 -40 c-3 -3 -12
-4 -19 -1 -8 3 -5 6 6 6 11 1 17 -2 13 -5z m-50 -10 c-3 -3 -12 -4 -19 -1 -8
3 -5 6 6 6 11 1 17 -2 13 -5z m-107 -25 c-41 -11 -119 -33 -174 -50 -54 -17
-100 -28 -102 -26 -8 7 140 59 221 77 107 24 149 23 55 -1z m1947 5 c-3 -3
-12 -4 -19 -1 -8 3 -5 6 6 6 11 1 17 -2 13 -5z m104 -20 c30 -9 50 -18 44 -20
-5 -2 -39 5 -75 15 -36 11 -56 20 -44 20 11 1 45 -6 75 -15z m-2351 -73 c-8
-5 -26 -11 -40 -15 -21 -5 -20 -3 5 9 32 15 60 20 35 6z m-295 -114 c-69 -29
-328 -159 -395 -198 -94 -54 -41 -15 75 56 95 58 330 165 360 164 6 0 -12 -10
-40 -22z m3302 -67 c36 -17 64 -32 61 -35 -2 -3 -36 11 -74 30 -85 42 -77 46
13 5z m-2498 -120 c11 -36 25 -84 31 -107 12 -46 27 -53 74 -32 28 13 39 44
30 89 -8 36 23 117 42 113 5 -1 16 5 26 13 11 10 18 12 23 5 9 -15 62 -14 67
1 7 20 27 -1 37 -40 10 -34 51 -76 51 -51 0 5 5 7 11 3 14 -8 29 13 29 41 0
15 10 24 33 31 18 5 31 15 29 22 -1 8 2 11 8 7 5 -3 10 -27 10 -53 0 -26 7
-56 15 -66 8 -11 15 -38 15 -60 0 -65 9 -86 36 -86 15 0 24 6 24 16 0 9 7 28
15 42 8 15 17 70 20 124 5 64 12 101 21 109 11 9 15 8 20 -4 3 -9 13 -13 25
-10 15 4 22 -3 34 -30 8 -20 24 -38 35 -42 11 -3 20 -13 20 -21 0 -8 9 -23 20
-34 11 -11 20 -24 20 -30 0 -17 32 -90 39 -90 4 0 16 36 26 80 11 47 23 79 29
77 6 -2 10 -15 9 -28 -2 -13 3 -44 11 -69 10 -34 19 -46 35 -48 28 -4 69 22
83 53 6 14 16 21 24 18 10 -4 14 3 14 25 0 16 9 50 21 76 l20 46 24 -29 c14
-15 38 -34 54 -41 29 -12 39 -30 56 -103 4 -20 10 -27 20 -23 12 4 15 -4 15
-37 0 -51 18 -79 72 -113 38 -24 41 -25 59 -8 10 9 19 24 19 31 0 29 25 6 28
-25 3 -33 19 -43 28 -18 5 12 11 12 42 -1 25 -10 37 -12 40 -4 5 15 35 14 50
-1 9 -9 12 -7 12 10 0 16 6 22 23 21 18 0 31 -19 71 -98 50 -100 94 -146 133
-140 10 2 28 -2 41 -9 12 -7 22 -9 22 -5 0 4 5 2 12 -5 7 -7 15 -42 19 -79 4
-43 12 -71 23 -78 9 -7 16 -20 16 -29 0 -9 5 -16 10 -16 6 0 10 9 10 20 0 11
6 20 13 20 8 0 22 9 32 20 16 18 17 34 12 153 -5 117 -4 137 13 175 l20 43 30
-18 c27 -16 32 -16 40 -3 5 8 10 24 10 35 0 15 6 11 22 -17 22 -38 45 -45 70
-20 9 9 15 9 25 0 10 -8 20 -8 38 0 23 11 38 46 59 145 4 15 10 27 15 27 8 0
61 -167 81 -260 16 -69 25 -80 65 -80 25 0 34 5 38 22 3 12 2 28 -2 36 -5 8
-4 30 2 49 10 31 13 33 39 28 16 -4 40 -18 53 -31 13 -13 33 -24 44 -24 15 0
23 -12 35 -54 14 -46 46 -95 46 -70 0 5 5 2 11 -6 6 -8 12 -11 15 -5 12 27 21
33 47 28 23 -5 27 -10 27 -39 0 -18 5 -45 11 -61 7 -15 15 -54 20 -87 7 -54
19 -75 44 -76 17 0 33 51 37 117 2 35 7 65 10 69 10 10 66 -56 73 -86 3 -15
15 -36 26 -46 10 -9 19 -23 19 -31 0 -8 9 -31 19 -51 11 -20 25 -52 32 -69 15
-43 23 -42 35 5 13 54 28 45 36 -22 4 -32 12 -64 18 -71 16 -19 59 -24 74 -9
10 9 16 10 25 1 8 -8 11 -6 11 9 0 11 6 29 14 39 13 18 15 18 29 -15 8 -19 28
-52 45 -73 17 -21 33 -56 37 -77 4 -22 12 -43 19 -47 7 -5 15 -29 18 -55 7
-59 52 -125 93 -136 18 -5 31 -16 34 -28 4 -21 111 -125 122 -118 12 7 26 -19
62 -113 34 -88 59 -137 82 -158 64 -59 83 -126 95 -330 4 -77 15 -187 24 -244
20 -130 21 -302 2 -364 -8 -26 -25 -60 -40 -77 -25 -30 -25 -33 -20 -148 15
-377 15 -458 0 -526 -9 -37 -16 -91 -16 -119 -1 -29 -7 -70 -15 -92 -31 -85
-37 -164 -19 -245 19 -84 15 -270 -6 -369 -9 -40 -10 -79 -1 -157 14 -137 4
-293 -20 -314 -21 -17 -39 -111 -39 -210 -1 -90 -24 -255 -38 -273 -7 -8 -15
-35 -18 -61 -4 -26 -11 -49 -15 -52 -5 -3 -9 -1 -9 5 0 6 -7 8 -15 5 -8 -4
-15 -12 -15 -19 0 -7 -6 -18 -14 -24 -8 -6 -29 -53 -47 -104 -18 -51 -41 -98
-51 -105 -10 -7 -18 -21 -18 -30 0 -9 -7 -26 -15 -36 -15 -19 -15 -19 -15 3 0
18 -4 21 -20 16 -15 -5 -21 0 -26 19 -3 14 -3 34 2 43 6 15 14 116 13 188 0
11 0 41 0 68 0 57 -15 61 -29 7 -5 -22 -15 -59 -21 -82 -6 -24 -21 -65 -34
-93 -12 -27 -25 -71 -29 -97 -4 -26 -11 -50 -17 -53 -5 -4 -9 -24 -9 -46 0
-36 -2 -40 -20 -34 -16 5 -20 2 -20 -19 0 -16 -16 -42 -46 -73 -26 -26 -63
-65 -83 -85 -38 -41 -58 -47 -67 -23 -12 29 -34 16 -40 -25 -6 -39 -7 -39 -23
-18 -17 20 -19 20 -43 4 -16 -10 -29 -13 -32 -7 -4 5 -2 12 3 16 6 3 7 13 4
21 -3 9 3 21 16 30 26 19 29 50 4 39 -10 -4 -27 -8 -37 -10 -14 -1 -23 -14
-31 -41 -8 -28 -13 -34 -17 -22 -4 9 -3 18 1 20 4 2 11 16 15 31 6 26 5 27
-13 17 -11 -5 -26 -19 -34 -30 -14 -20 -14 -20 -32 0 -26 29 -32 25 -39 -22
-16 -126 -29 -150 -41 -78 -4 22 -10 42 -14 44 -4 3 -15 -18 -24 -45 -10 -28
-24 -49 -32 -49 -8 0 -15 -5 -15 -10 0 -6 -16 -26 -35 -46 -23 -23 -35 -29
-35 -19 0 25 -17 17 -39 -20 -11 -19 -25 -35 -30 -35 -6 0 -18 -14 -27 -32
l-16 -32 -13 24 c-8 15 -15 19 -19 11 -5 -8 -13 -8 -26 -1 -16 8 -22 6 -33
-16 -9 -17 -17 -23 -21 -15 -10 15 -26 14 -26 -2 0 -22 -33 -13 -66 19 -39 37
-84 74 -90 74 -7 0 -84 -162 -84 -177 0 -7 -5 -13 -11 -13 -7 0 -22 -10 -34
-22 -65 -66 -74 -71 -91 -54 -8 9 -26 16 -39 16 -18 0 -25 -7 -30 -30 -4 -17
-11 -30 -16 -30 -4 0 -17 -17 -28 -37 -19 -36 -20 -37 -21 -11 0 15 -4 29 -9
33 -6 3 -13 26 -17 50 -3 25 -10 48 -15 51 -5 3 -24 -9 -42 -28 l-32 -33 -3
28 c-4 31 -28 36 -37 7 -4 -11 -10 -18 -15 -15 -10 6 -50 -30 -50 -45 0 -19
-23 -59 -31 -54 -5 3 -9 16 -9 29 0 41 -9 52 -40 47 -27 -4 -30 -1 -30 22 0
14 -4 26 -10 26 -5 0 -10 -16 -10 -35 0 -25 -4 -35 -16 -35 -9 0 -18 9 -21 19
-15 58 -73 11 -125 -99 -20 -41 -39 -83 -42 -94 -5 -15 -9 -16 -22 -5 -13 10
-17 10 -25 -2 -5 -8 -9 -19 -9 -24 0 -10 -35 -45 -45 -45 -3 0 -5 17 -5 39 0
34 -3 39 -27 44 -26 5 -28 9 -31 62 -1 33 2 63 9 71 8 10 10 38 6 89 -4 42 -2
86 3 100 11 29 1 231 -10 218 -13 -14 -40 -106 -40 -135 0 -15 -4 -28 -9 -28
-5 0 -12 -11 -15 -25 -3 -13 -17 -36 -31 -51 -14 -15 -25 -38 -25 -51 0 -36
-21 -113 -31 -113 -5 0 -9 -10 -9 -22 0 -13 -3 -33 -6 -46 -6 -22 -8 -22 -25
-6 -11 9 -19 14 -19 11 0 -4 0 -9 0 -12 0 -3 -7 -19 -16 -37 -11 -21 -19 -27
-23 -19 -6 9 -21 4 -57 -17 -27 -16 -54 -27 -61 -25 -6 2 -14 -1 -18 -6 -3 -6
-17 -11 -30 -11 -19 0 -30 10 -45 41 -24 46 -44 47 -48 1 -4 -41 -15 -41 -30
2 -11 30 -18 35 -49 38 -36 3 -37 4 -38 45 -1 38 1 42 24 45 36 4 33 30 -4 40
-16 4 -35 15 -42 23 -17 24 -26 2 -28 -71 -1 -81 -12 -93 -17 -20 -1 31 0 56
5 56 4 0 7 15 7 34 0 31 -2 33 -27 28 -16 -3 -31 -9 -34 -14 -4 -6 -16 6 -28
26 -29 47 -41 45 -41 -4 0 -22 -4 -40 -9 -40 -6 0 -11 -16 -13 -35 -5 -55 -22
-46 -33 17 -11 63 -21 80 -31 52 -21 -65 -27 -74 -44 -69 -12 4 -23 -1 -32
-13 -15 -23 -68 -27 -68 -6 0 23 -26 16 -44 -11 -9 -14 -22 -23 -28 -19 -6 4
-19 -3 -28 -16 -20 -27 -40 -19 -40 16 0 25 -14 32 -26 12 -5 -7 -10 -4 -15
10 -10 26 -34 29 -47 5 -9 -14 -10 -14 -16 5 -8 23 -26 30 -26 10 0 -9 -3 -9
-11 -1 -6 6 -17 9 -24 7 -7 -3 -15 6 -20 23 -6 27 -41 79 -77 115 -10 10 -18
25 -18 33 0 22 -28 18 -35 -5 -4 -11 -17 -33 -30 -49 -14 -15 -29 -40 -34 -54
-7 -17 -16 -25 -25 -21 -8 3 -17 1 -21 -5 -3 -6 -17 -11 -29 -11 -13 0 -28 -6
-34 -12 -15 -20 -32 -169 -32 -287 0 -120 -8 -145 -38 -118 -10 9 -22 14 -25
10 -4 -3 -10 8 -13 25 -7 33 -30 44 -36 17 -2 -12 -7 -12 -28 -2 -31 16 -32
39 -3 52 13 5 21 16 19 25 -2 8 -7 31 -10 51 -4 21 -13 42 -21 49 -13 11 -15
8 -15 -19 0 -18 -4 -30 -9 -26 -14 8 -20 -6 -22 -58 -2 -34 -6 -44 -14 -37 -7
6 -15 7 -19 2 -4 -4 -12 1 -17 11 -13 22 -35 22 -48 0 -8 -14 -9 -11 -5 14 5
25 2 33 -15 43 -12 6 -25 9 -30 6 -10 -6 -21 26 -21 62 0 12 -3 22 -7 22 -21
-1 -34 -20 -32 -46 1 -16 1 -37 1 -46 -2 -19 -32 -24 -47 -9 -6 6 -26 12 -45
14 -61 8 -88 18 -93 37 -2 10 -18 21 -34 24 -21 5 -35 17 -47 43 -12 26 -20
33 -25 24 -6 -9 -11 -10 -15 -2 -11 17 -26 13 -26 -6 -1 -16 -2 -16 -15 1 -8
11 -18 17 -21 13 -4 -4 -13 -2 -20 4 -8 6 -20 9 -28 6 -9 -4 -17 2 -21 14 -4
10 -13 19 -20 19 -8 0 -17 15 -21 35 -7 39 -27 65 -50 65 -8 0 -14 -7 -14 -15
0 -8 -4 -15 -10 -15 -5 0 -10 8 -10 19 0 39 -59 52 -60 12 -1 -10 -7 -5 -17
13 -15 28 -16 29 -29 11 -8 -10 -14 -33 -15 -49 0 -26 -5 -19 -26 36 -18 49
-30 68 -43 68 -10 0 -20 -6 -22 -12 -8 -23 -58 44 -73 97 -9 29 -22 60 -30 71
-8 10 -15 27 -15 37 0 25 -19 21 -42 -9 l-20 -25 -20 20 c-10 12 -22 21 -27
21 -4 0 -12 24 -17 52 -7 39 -13 53 -25 52 -13 -1 -18 11 -22 49 -6 46 -29 87
-49 87 -5 0 -15 -14 -22 -30 l-12 -30 -25 27 c-14 16 -31 41 -39 56 -11 21
-20 27 -39 25 -23 -3 -27 2 -35 37 -11 51 -37 105 -51 105 -6 0 -17 21 -25 47
-9 31 -26 59 -51 81 -20 19 -39 47 -43 63 -3 19 -10 28 -17 23 -16 -9 -56 15
-62 38 -4 15 -11 18 -26 13 -14 -4 -23 -1 -27 9 -3 9 -11 16 -18 16 -6 0 -17
9 -23 19 -10 15 -21 19 -50 16 -53 -5 -68 10 -92 90 -20 65 -21 89 -18 328 1
141 -1 261 -6 266 -12 12 -4 230 9 239 6 4 18 35 28 70 10 35 26 79 38 98 30
51 48 118 59 224 39 372 38 361 22 440 -10 50 -13 97 -8 143 3 37 3 67 -2 67
-14 0 -10 133 5 137 15 6 16 35 0 51 -7 7 -8 12 -2 12 10 0 12 139 2 155 -12
19 -5 105 9 116 16 14 19 149 3 149 -7 0 -7 6 -1 19 6 10 13 54 16 97 3 43 9
97 14 118 6 22 7 44 5 48 -3 5 -1 15 5 22 6 7 11 50 11 97 1 97 3 124 21 314
16 164 17 344 0 354 -12 8 -17 96 -7 129 4 12 3 22 -2 22 -21 0 -19 30 4 55
13 14 24 30 24 36 0 11 12 27 58 73 17 18 32 40 32 49 0 9 5 19 10 22 6 3 10
15 10 25 0 11 9 24 20 30 11 6 20 18 20 27 0 17 37 63 51 63 4 0 15 -7 24 -16
15 -15 18 -15 38 3 12 11 30 23 40 26 9 4 17 13 17 22 0 8 4 15 9 15 5 0 12
14 16 30 5 21 12 30 23 28 10 -1 32 6 50 15 22 12 32 14 32 5 0 -9 3 -9 11 -1
6 6 17 9 25 6 8 -3 22 9 34 29 21 35 22 65 2 60 -17 -3 -15 5 6 26 9 10 23 28
31 40 8 11 18 19 22 16 4 -2 10 5 14 16 4 11 18 28 32 37 14 10 32 32 39 50 9
21 21 33 33 33 13 0 21 8 23 23 2 14 11 23 26 25 13 2 28 14 34 28 6 13 17 24
24 24 8 0 24 18 36 40 13 22 28 40 33 40 17 2 85 98 85 120 0 12 4 19 9 15 16
-9 81 36 87 61 4 14 9 22 12 19 3 -3 13 2 23 11 17 15 21 15 55 -5 32 -19 39
-20 64 -8 19 10 33 11 45 4 12 -7 24 -6 35 1 10 6 27 8 39 5 14 -4 21 -1 21 9
0 8 5 19 12 26 9 9 17 6 35 -15 22 -27 23 -28 38 -9 9 12 15 14 15 7 0 -17 25
-8 26 10 0 8 4 22 9 32 7 17 9 17 26 1 13 -12 28 -15 54 -10 33 7 39 4 85 -44
32 -33 54 -49 62 -44 18 11 91 5 105 -9 6 -7 23 -43 38 -82 14 -38 33 -77 42
-87 10 -11 13 -26 9 -43 -7 -27 2 -75 13 -75 22 0 32 63 32 197 -1 126 2 150
20 194 21 48 52 66 62 37 5 -16 37 44 37 69 1 16 3 15 19 -4 11 -13 22 -23 26
-23 14 0 55 51 55 67 0 13 3 13 15 3 32 -27 73 38 95 147 6 32 16 71 23 87
l11 30 18 -40 c10 -21 27 -68 37 -104z m-1259 -44 c0 -2 -24 -19 -52 -37 -29
-17 -64 -39 -78 -47 -14 -9 -20 -11 -15 -5 9 10 136 93 143 93 1 0 2 -2 2 -4z
m-179 -114 c-71 -49 -265 -195 -326 -246 -62 -51 -59 -47 25 33 58 55 138 119
205 161 61 38 112 70 115 69 3 0 -6 -8 -19 -17z m4611 -143 c35 -32 28 -29
-34 17 -43 31 -78 58 -78 60 0 9 74 -42 112 -77z m-5169 -316 c-88 -87 -194
-200 -237 -250 -43 -51 -80 -93 -82 -93 -3 0 31 46 73 103 46 60 121 142 183
197 57 52 129 118 160 147 106 100 61 52 -97 -104z m5710 -188 c35 -46 14 -26
-69 65 -52 58 -53 60 -10 20 26 -25 62 -63 79 -85z m-6033 -169 c0 -2 -8 -10
-17 -17 -16 -13 -17 -12 -4 4 13 16 21 21 21 13z m-30 -39 c0 -2 -10 -12 -22
-23 l-23 -19 19 23 c18 21 26 27 26 19z m-65 -83 c-58 -75 -142 -202 -217
-327 -43 -72 -78 -128 -78 -125 0 4 23 53 51 109 33 65 90 154 157 241 58 76
107 138 110 138 2 0 -8 -16 -23 -36z m6546 -266 c31 -60 15 -44 -30 30 -26 42
-32 56 -16 37 15 -16 35 -47 46 -67z m-6856 -228 c-9 -16 -18 -30 -21 -30 -2
0 2 14 11 30 9 17 18 30 21 30 2 0 -2 -13 -11 -30z m-92 -185 c-3 -9 -8 -14
-10 -11 -3 3 -2 9 2 15 9 16 15 13 8 -4z m-29 -62 c-42 -99 -72 -174 -94 -235
-13 -37 -25 -66 -28 -64 -10 10 45 170 85 249 46 89 66 116 37 50z m7305 -203
c0 -8 -11 12 -24 44 -14 33 -25 62 -24 65 1 12 49 -94 48 -109z m-7542 -512
c-3 -8 -6 -5 -6 6 -1 11 2 17 5 13 3 -3 4 -12 1 -19z m-32 -158 c-23 -117 -24
-120 -19 -50 5 72 35 204 41 184 1 -5 -9 -65 -22 -134z m7763 -20 l0 -35 -8
35 c-4 19 -10 53 -13 75 l-6 40 14 -40 c7 -22 13 -56 13 -75z m9 -82 c-3 -7
-5 -2 -5 12 0 14 2 19 5 13 2 -7 2 -19 0 -25z m-7800 -70 c-3 -8 -6 -5 -6 6
-1 11 2 17 5 13 3 -3 4 -12 1 -19z m-30 -320 c-3 -8 -6 -5 -6 6 -1 11 2 17 5
13 3 -3 4 -12 1 -19z m7870 -50 c-3 -7 -5 -2 -5 12 0 14 2 19 5 13 2 -7 2 -19
0 -25z m-7878 -155 c-2 -105 -3 -117 -9 -68 -6 55 -2 195 6 195 2 0 3 -57 3
-127z m7888 -60 c-2 -32 -3 -8 -3 52 0 61 1 87 3 58 2 -29 2 -78 0 -110z m-10
-135 c-2 -13 -4 -5 -4 17 -1 22 1 32 4 23 2 -10 2 -28 0 -40z m-30 -330 c-3
-7 -5 -2 -5 12 0 14 2 19 5 13 2 -7 2 -19 0 -25z m-12 -130 c-4 -45 -18 -116
-31 -158 -29 -97 -29 -83 1 69 14 68 25 135 25 148 0 13 3 23 6 23 3 0 3 -37
-1 -82z m-7788 20 c-3 -7 -5 -2 -5 12 0 14 2 19 5 13 2 -7 2 -19 0 -25z m26
-133 l6 -40 -14 40 c-7 22 -13 56 -13 75 l0 35 8 -35 c4 -19 10 -53 13 -75z
m7574 -591 c-13 -43 -47 -124 -76 -179 -59 -113 -59 -109 -3 20 22 50 52 125
67 168 15 43 29 76 31 74 2 -2 -7 -39 -19 -83z m-7371 -101 c-4 -4 -36 73 -35
85 0 4 9 -13 20 -37 11 -24 18 -46 15 -48z m7088 -495 c-37 -74 -95 -166 -170
-265 -63 -84 -116 -153 -119 -153 -2 0 27 43 66 96 82 115 206 308 243 382 14
28 29 52 31 52 3 0 -20 -51 -51 -112z m-6764 -130 l31 -53 -30 35 c-26 30 -46
70 -36 70 2 0 17 -24 35 -52z m6153 -89 c-4 -14 0 -26 10 -34 19 -13 12 -25
-27 -45 -16 -9 -37 -32 -47 -55 l-18 -40 6 35 c3 19 12 39 20 43 7 4 13 21 13
36 0 16 9 40 21 55 25 32 29 32 22 5z m213 -346 c-94 -123 -134 -164 -373
-380 -262 -237 -333 -291 -553 -417 -41 -24 15 18 100 74 321 213 668 532 889
818 18 23 35 42 37 42 3 0 -42 -62 -100 -137z m-716 -3 c0 -11 -4 -20 -9 -20
-5 0 -7 9 -4 20 3 11 7 20 9 20 2 0 4 -9 4 -20z m-5189 -155 c72 -77 73 -78
15 -26 -33 29 -75 74 -94 99 -38 51 -31 45 79 -73z m3355 -417 c-9 -23 -7 -31
13 -52 15 -16 21 -31 17 -42 -5 -13 -9 -15 -18 -6 -7 7 -27 12 -45 12 -34 0
-36 -2 -59 -65 -7 -19 -7 -19 -12 -1 -5 23 9 116 15 99 9 -25 21 -12 27 29 7
46 19 58 52 56 18 -2 20 -5 10 -30z m-2776 -94 c0 -10 -99 59 -125 87 -21 22
-6 14 48 -26 42 -31 77 -59 77 -61z m4380 -138 c0 -15 -324 -198 -414 -234
-60 -23 -110 -41 -112 -40 -1 2 51 28 116 57 65 30 183 91 262 137 156 90 148
86 148 80z m-3764 -223 c-5 -6 -109 43 -131 61 -11 9 15 0 57 -21 43 -20 76
-39 74 -40z m3204 -68 c-14 -8 -29 -14 -35 -14 -5 0 1 6 15 14 14 8 30 14 35
14 6 0 -1 -6 -15 -14z m-211 -79 c-15 -15 -238 -90 -304 -102 -121 -21 -113
-16 40 26 77 21 165 48 195 59 54 19 77 25 69 17z m-2394 -71 c57 -18 68 -24
39 -20 -34 4 -142 42 -124 44 3 0 41 -11 85 -24z m112 -31 c-3 -3 -12 -4 -19
-1 -8 3 -5 6 6 6 11 1 17 -2 13 -5z m1870 -20 c-3 -3 -12 -4 -19 -1 -8 3 -5 6
6 6 11 1 17 -2 13 -5z m-44 -11 c-7 -2 -19 -2 -25 0 -7 3 -2 5 12 5 14 0 19
-2 13 -5z m-216 -39 c-3 -3 -12 -4 -19 -1 -8 3 -5 6 6 6 11 1 17 -2 13 -5z
m-64 -11 c-7 -2 -19 -2 -25 0 -7 3 -2 5 12 5 14 0 19 -2 13 -5z m-1060 -10
c-7 -2 -19 -2 -25 0 -7 3 -2 5 12 5 14 0 19 -2 13 -5z m957 -8 c-36 -8 -108
-13 -160 -13 l-95 1 95 8 c52 5 106 10 120 12 14 2 43 4 65 5 33 0 29 -2 -25
-13z m-721 -11 c8 -8 -145 -3 -184 6 -27 6 -5 7 70 3 61 -3 112 -7 114 -9z"/>
<path d="M3840 6558 c-23 -10 -45 -15 -165 -36 -121 -21 -315 -188 -405 -346
-127 -226 -186 -479 -197 -849 -5 -165 -4 -201 8 -209 11 -7 11 -11 2 -15 -9
-3 -13 -30 -13 -84 l0 -79 53 -1 c147 -3 305 -3 327 -2 14 1 53 0 88 -3 48 -5
62 -3 62 8 0 11 2 10 9 -1 12 -19 31 -5 31 24 0 22 -2 24 -26 14 -32 -11 -40
-7 -19 11 18 15 19 28 3 80 -12 36 -28 54 -28 30 0 -5 -7 -7 -15 -4 -10 4 -15
0 -15 -14 0 -14 -8 -22 -22 -24 -14 -2 -25 -13 -29 -28 l-7 -25 -1 26 c-1 15
5 29 13 32 8 3 18 23 21 44 17 102 20 107 48 79 21 -22 81 -6 85 22 2 12 8 22
13 22 5 0 9 9 9 21 0 11 5 17 10 14 6 -4 10 16 10 52 0 32 7 89 15 128 8 38
15 79 15 89 0 11 9 29 19 40 11 12 26 34 35 50 12 24 23 30 56 33 36 4 45 0
74 -29 31 -31 45 -64 60 -139 4 -15 14 -29 26 -32 24 -6 28 -47 5 -47 -12 0
-15 -14 -15 -70 0 -38 2 -70 5 -70 16 0 35 64 29 98 -7 34 -6 36 10 22 10 -8
22 -24 27 -36 5 -16 18 -24 41 -26 l33 -3 -25 -23 c-13 -12 -31 -20 -41 -17
-22 7 -49 -4 -49 -21 0 -7 -6 -17 -14 -21 -10 -6 -15 -49 -19 -183 -6 -180
-25 -318 -52 -370 -9 -17 -28 -43 -44 -58 -15 -15 -33 -37 -39 -49 -14 -26
-67 -54 -88 -46 -9 3 -14 -2 -14 -15 0 -24 -23 -35 -39 -19 -8 8 -11 5 -11
-12 0 -12 -4 -19 -10 -16 -5 3 -10 15 -10 26 0 17 -6 20 -42 17 -36 -2 -44 -7
-46 -26 -2 -16 3 -25 20 -31 16 -7 18 -10 6 -10 -13 -1 -17 -17 -22 -93 -8
-128 -11 -304 -8 -490 l2 -158 27 -6 c14 -4 34 -2 44 4 14 9 20 9 26 -1 4 -7
28 -21 53 -32 81 -35 133 -86 174 -174 62 -131 69 -196 69 -596 0 -303 -3
-360 -18 -425 -18 -75 -48 -124 -88 -147 -47 -25 -141 17 -172 77 -14 26 -38
219 -39 313 -1 26 -5 47 -9 47 -5 0 -5 6 -1 12 12 19 23 348 14 374 -11 28
-36 33 -185 35 -66 1 -174 8 -240 16 -157 19 -209 16 -213 -14 -2 -12 6 -31
18 -43 16 -16 18 -25 11 -34 -17 -20 -32 -151 -33 -281 -1 -124 23 -260 57
-325 12 -22 14 -46 9 -100 -4 -38 -11 -70 -15 -70 -14 0 -10 -114 5 -156 7
-22 16 -60 20 -87 17 -110 138 -377 208 -457 93 -106 245 -201 343 -215 28 -4
58 -12 67 -16 27 -14 236 -13 303 1 97 21 174 61 255 134 81 73 187 223 216
305 9 25 26 71 39 101 39 94 63 181 84 302 25 141 27 211 6 228 -8 7 -15 19
-15 27 0 8 -5 11 -10 8 -6 -3 -13 1 -17 10 -14 38 -101 100 -88 63 3 -7 -4
-24 -15 -38 -19 -25 -20 -25 -20 -3 0 12 4 24 9 28 5 3 15 31 22 63 16 76 28
98 29 51 0 -28 5 -38 25 -47 21 -10 25 -9 25 3 0 8 9 15 19 15 11 0 21 9 25
24 3 13 15 26 27 29 20 5 21 10 14 64 -4 32 -7 87 -6 122 1 58 -1 63 -19 58
-15 -4 -20 0 -20 14 0 10 -4 19 -10 19 -5 0 -10 -15 -10 -34 0 -25 -5 -35 -19
-39 -27 -7 -31 0 -18 32 8 22 6 35 -7 61 -20 42 -8 60 28 41 13 -8 29 -10 34
-7 6 4 12 -7 14 -26 2 -17 9 -33 17 -36 20 -7 13 535 -8 547 -10 6 -12 19 -7
41 6 35 -11 160 -23 160 -4 0 -12 21 -19 48 -16 59 -35 102 -44 102 -5 0 -8 6
-8 13 0 31 -68 153 -93 166 -15 8 -27 20 -27 26 0 15 -50 58 -58 50 -4 -4 -12
-21 -19 -38 l-12 -32 5 40 c4 32 3 37 -6 22 -14 -22 -30 -13 -23 13 3 11 14
20 24 20 11 0 22 7 25 15 4 8 12 15 20 15 8 0 14 3 14 8 0 4 14 22 30 40 46
53 55 107 10 67 -18 -16 -20 -16 -20 -2 0 10 -4 17 -10 17 -5 0 -10 -4 -10
-10 0 -5 -7 -10 -15 -10 -9 0 -18 -7 -21 -15 -4 -8 -17 -15 -30 -15 -24 0 -24
2 -17 53 10 70 8 110 -6 115 -6 2 -11 22 -10 45 l1 42 20 -47 c21 -48 38 -62
38 -31 0 9 3 13 7 9 4 -4 7 -19 8 -34 0 -20 5 -27 20 -27 11 0 21 -8 23 -18 5
-23 23 -22 29 3 3 11 10 20 17 20 6 0 17 -9 24 -20 17 -28 41 -25 53 6 7 20 6
32 -6 50 -20 32 -19 35 10 28 21 -5 27 -1 36 22 6 16 11 47 12 69 2 31 -1 39
-13 37 -8 -2 -3 7 11 20 17 15 28 37 32 63 2 22 13 86 22 143 15 89 17 131 9
304 -5 110 -6 202 -1 205 11 6 9 183 -2 183 -6 0 -17 -10 -25 -21 -9 -13 -21
-19 -30 -16 -18 7 -22 27 -5 27 5 0 8 4 4 10 -8 13 5 61 15 55 17 -11 40 8 40
34 0 122 -61 362 -127 496 -63 128 -67 135 -90 135 -12 0 -28 3 -36 6 -10 3
-18 -4 -25 -23 -6 -17 -11 -21 -11 -10 -1 19 -51 26 -51 7 0 -7 -6 -7 -19 -1
-19 11 -61 86 -61 110 0 10 -3 11 -14 2 -11 -9 -15 -8 -20 4 -3 9 -10 13 -16
10 -6 -3 -10 4 -10 18 0 18 -7 27 -23 31 -21 5 -23 9 -17 52 6 58 30 73 30 19
0 -29 8 -44 45 -79 25 -25 45 -49 45 -55 0 -11 51 -41 70 -41 5 0 10 9 10 19
0 11 5 23 10 26 19 12 10 33 -32 78 -25 26 -65 55 -95 67 -29 12 -58 28 -64
36 -6 8 -21 14 -33 14 -11 0 -30 7 -40 15 -11 8 -28 13 -37 10 -10 -3 -44 1
-77 10 -33 8 -61 15 -63 14 -2 0 -15 -5 -29 -11z m-43 -75 c-3 -10 -5 -4 -5
12 0 17 2 24 5 18 2 -7 2 -21 0 -30z m-7 -27 c0 -3 -4 -8 -10 -11 -5 -3 -10
-1 -10 4 0 6 5 11 10 11 6 0 10 -2 10 -4z m-49 -169 c-8 -8 -11 -7 -11 4 0 20
13 34 18 19 3 -7 -1 -17 -7 -23z m167 -208 c-3 -20 -5 -19 -9 9 -3 20 -2 29 4
23 5 -5 7 -19 5 -32z m212 -179 c0 -5 -4 -10 -10 -10 -5 0 -10 5 -10 10 0 6 5
10 10 10 6 0 10 -4 10 -10z m406 -372 c4 -6 2 -13 -3 -17 -5 -3 -13 -15 -18
-26 -8 -19 -9 -19 -12 3 -3 13 -12 22 -23 22 -22 0 -32 -23 -17 -40 9 -10 9
-11 -3 -8 -16 5 -23 65 -8 74 5 3 15 0 23 -6 13 -11 19 -7 17 11 -2 10 37 -2
44 -13z m-931 -35 c6 -17 7 -17 20 1 14 19 15 19 21 0 13 -41 13 -45 4 -39 -5
3 -25 8 -45 10 -32 4 -35 3 -26 -13 6 -10 6 -24 1 -32 -5 -8 -6 -18 -3 -23 3
-4 -1 -22 -7 -38 -11 -25 -10 -36 5 -69 10 -22 15 -43 12 -47 -4 -3 -7 1 -7
10 0 9 -7 20 -15 24 -19 11 -22 51 -11 137 11 84 34 121 51 79z m805 -312 c0
-11 -4 -9 -14 5 -15 19 -15 19 -31 -1 -9 -11 -15 -15 -12 -10 2 6 7 18 10 28
6 15 10 16 27 5 11 -7 20 -19 20 -27z m-1230 -44 c0 -7 -11 -12 -25 -12 -30 0
-31 3 -8 21 19 13 33 10 33 -9z m1190 -4 c-1 -23 -50 -55 -50 -33 0 6 7 10 15
10 8 0 15 7 15 15 0 8 5 15 10 15 6 0 10 -3 10 -7z m17 -65 c-3 -8 -6 -5 -6 6
-1 11 2 17 5 13 3 -3 4 -12 1 -19z m-125 -100 c-7 -7 -12 -24 -12 -40 0 -25
-2 -27 -25 -18 -14 5 -25 6 -26 2 0 -4 -5 4 -10 17 -12 30 -4 39 21 23 17 -11
20 -10 20 8 0 13 5 18 15 14 8 -4 15 -1 15 7 0 7 3 9 7 6 4 -4 1 -13 -5 -19z
m21 -233 c4 -24 0 -48 -10 -70 -15 -30 -14 -34 3 -57 15 -20 28 -25 66 -26 36
-1 48 3 48 14 0 16 4 17 28 5 9 -5 25 -12 35 -15 25 -8 11 -26 -19 -26 -21 0
-24 -4 -19 -20 3 -11 2 -20 -4 -20 -5 0 -12 -12 -14 -27 -3 -23 -4 -21 -6 10
-1 41 -11 45 -53 23 -21 -11 -28 -12 -32 -1 -7 20 -56 6 -56 -16 0 -11 -4 -19
-9 -19 -5 0 -7 10 -4 21 5 20 3 21 -21 15 -34 -8 -46 -1 -39 24 3 13 14 20 28
20 24 0 35 22 35 72 0 14 6 28 13 31 7 2 12 23 12 54 0 58 9 61 18 8z m-193
-166 c0 -5 -13 -12 -30 -15 -21 -5 -30 -13 -31 -28 -2 -20 -2 -20 -6 2 -3 15
-11 22 -29 22 -13 0 -24 -6 -24 -12 0 -7 -5 -5 -11 5 -11 18 -3 41 10 32 5 -2
28 -1 52 4 47 8 69 5 69 -10z m51 -12 c18 5 19 2 13 -23 -8 -34 -23 -64 -24
-47 0 6 -6 18 -14 26 -9 9 -12 23 -9 38 4 13 8 18 10 12 2 -6 13 -9 24 -6z
m-122 -104 c-1 -43 -2 -45 -9 -18 -11 44 -11 65 0 65 6 0 9 -21 9 -47z m264
-333 c-9 -34 -30 -6 -25 35 l4 36 13 -25 c7 -14 11 -34 8 -46z m-357 -107 c7
-21 12 -37 11 -38 -1 0 -12 -5 -23 -12 -16 -8 -24 -9 -32 -1 -8 8 -14 5 -20
-12 l-9 -24 -5 22 c-4 15 -2 22 8 22 8 0 15 11 16 25 0 14 1 31 2 38 1 12 27
28 35 21 3 -3 10 -21 17 -41z m411 25 c-3 -8 -6 -5 -6 6 -1 11 2 17 5 13 3 -3
4 -12 1 -19z m54 -11 c-10 -9 -11 -8 -5 6 3 10 9 15 12 12 3 -3 0 -11 -7 -18z
m-19 -21 c6 4 9 1 6 -6 -2 -7 -14 -17 -26 -21 -20 -8 -20 -6 -9 18 6 14 13 20
15 14 2 -6 8 -8 14 -5z m-347 -135 c3 -5 1 -12 -5 -16 -5 -3 -10 1 -10 9 0 18
6 21 15 7z m506 -18 c2 -13 2 -57 0 -77 -2 -33 -18 -5 -24 42 -4 32 -2 42 9
42 8 0 14 -3 15 -7z m13 -155 c4 -17 2 -28 -4 -28 -5 0 -10 14 -10 32 0 36 4
35 14 -4z m-75 -415 c0 -25 -1 -26 -9 -8 -12 27 -12 35 0 35 6 0 10 -12 9 -27z
m-179 -103 c0 -11 -4 -20 -9 -20 -5 0 -7 9 -4 20 3 11 7 20 9 20 2 0 4 -9 4
-20z m-971 -903 c0 -21 -1 -21 -9 -2 -12 28 -12 37 0 30 6 -3 10 -16 9 -28z
m896 -230 c25 -44 32 -77 16 -77 -5 0 -11 7 -15 15 -6 17 -56 21 -56 5 0 -5
-7 -10 -15 -10 -12 0 -11 6 5 33 11 17 20 42 20 55 0 34 17 26 45 -21z m-875
-7 c-8 -5 -17 -7 -19 -4 -3 3 1 9 9 14 8 5 17 7 19 4 3 -3 -1 -9 -9 -14z"/>
<path d="M2420 6319 c-14 -6 -43 -14 -65 -19 -22 -4 -56 -14 -75 -20 -33 -12
-65 -23 -135 -48 -41 -14 -126 -50 -210 -88 -38 -17 -95 -42 -125 -55 -30 -12
-73 -35 -95 -49 -22 -15 -51 -30 -65 -33 -48 -13 -55 -22 -44 -63 10 -40 30
-56 36 -28 2 10 8 -8 14 -40 11 -61 5 -76 -20 -50 -9 8 -20 13 -25 9 -5 -3
-16 3 -23 14 -8 11 -21 19 -29 17 -32 -7 -67 -25 -72 -40 -4 -9 -12 -16 -18
-16 -7 0 -3 10 9 23 22 23 29 61 14 71 -12 7 -120 -45 -157 -76 -16 -14 -64
-47 -105 -75 -132 -89 -121 -55 -126 -400 -3 -164 -7 -303 -9 -310 -7 -21 13
-25 42 -9 35 18 85 40 143 61 118 44 120 45 120 84 0 70 21 105 35 61 3 -11
15 -20 25 -20 13 0 17 -5 13 -19 -4 -16 0 -20 18 -18 13 0 39 9 57 19 18 10
37 16 41 14 4 -3 42 6 85 20 43 13 82 22 87 19 17 -11 22 11 -97 -370 -31 -99
-64 -209 -75 -245 -10 -36 -28 -90 -39 -120 -11 -30 -25 -75 -31 -100 -5 -25
-30 -107 -54 -182 -25 -76 -45 -149 -45 -163 0 -14 -11 -43 -25 -65 -14 -22
-25 -54 -25 -71 0 -18 -6 -37 -14 -43 -7 -6 -33 -65 -56 -131 -23 -66 -60
-169 -81 -230 -22 -60 -44 -121 -48 -135 -5 -14 -23 -55 -40 -93 -18 -37 -47
-109 -65 -160 l-34 -92 -4 -294 -5 -294 36 -34 c48 -46 103 -73 144 -73 19 0
40 -6 46 -14 7 -8 22 -17 35 -20 14 -3 26 -16 30 -30 4 -17 15 -26 38 -31 38
-9 48 -20 48 -56 0 -27 10 -33 70 -48 13 -3 30 -17 36 -30 19 -37 236 -153
312 -166 23 -4 42 -11 42 -16 0 -5 8 -9 19 -9 10 0 24 -7 32 -16 14 -17 89
-57 129 -69 14 -4 59 -22 100 -40 41 -18 96 -37 123 -40 26 -4 50 -11 53 -16
3 -5 19 -9 36 -9 27 0 30 3 26 24 -3 15 0 27 8 30 8 3 14 13 14 23 0 15 2 15
15 -3 14 -19 14 -19 15 3 0 12 -5 23 -11 25 -7 2 -7 12 1 32 6 16 10 90 9 169
0 78 2 236 5 350 3 115 1 218 -4 231 -8 21 -30 27 -282 75 -150 29 -287 59
-305 67 -38 17 -63 18 -63 2 0 -6 -6 -4 -13 6 -8 11 -20 17 -28 14 -8 -3 -21
3 -29 12 -8 9 -28 21 -45 27 -40 13 -42 35 -9 119 14 38 41 114 60 169 18 55
51 152 74 215 23 63 46 133 52 155 25 101 45 164 114 363 71 201 81 249 48
221 -10 -8 -14 -8 -14 0 0 6 5 12 10 12 6 1 15 2 21 3 17 2 23 16 69 159 34
104 40 130 30 143 -11 12 -10 13 3 9 11 -5 17 2 22 24 4 17 27 92 51 167 24
74 44 140 44 145 0 5 -7 9 -16 9 -11 0 -9 6 9 23 40 37 109 237 81 237 -9 0
-10 8 -2 36 5 20 7 42 4 50 -3 8 -2 14 3 14 5 0 11 -10 15 -22 5 -19 8 -21 16
-8 5 8 10 25 10 37 0 12 5 25 10 28 6 3 10 16 10 28 0 12 18 78 41 147 l40
125 5 414 c5 411 4 414 -15 397 -19 -17 -19 -17 -14 3 3 12 11 21 17 21 6 0
13 11 14 25 2 27 -8 30 -48 14z m-54 -256 c-11 -11 -17 4 -9 23 7 18 8 18 11
1 2 -10 1 -21 -2 -24z m7 -603 c-3 -11 -7 -20 -9 -20 -2 0 -4 9 -4 20 0 11 4
20 9 20 5 0 7 -9 4 -20z m-18 -151 c6 -26 2 -36 -19 -57 l-26 -27 0 32 c0 17
7 36 15 43 9 7 14 19 11 27 -3 7 -1 13 4 13 4 0 11 -14 15 -31z m-1099 -26
c-10 -10 -19 5 -10 18 6 11 8 11 12 0 2 -7 1 -15 -2 -18z m305 -16 c-10 -9
-11 -8 -5 6 3 10 9 15 12 12 3 -3 0 -11 -7 -18z m-174 -9 c-3 -8 -6 -5 -6 6
-1 11 2 17 5 13 3 -3 4 -12 1 -19z m150 -40 c-3 -8 -6 -5 -6 6 -1 11 2 17 5
13 3 -3 4 -12 1 -19z m381 -183 c-3 -3 -9 2 -12 12 -6 14 -5 15 5 6 7 -7 10
-15 7 -18z m-37 -12 c-8 -15 -10 -15 -11 -2 0 17 10 32 18 25 2 -3 -1 -13 -7
-23z m133 -659 c16 -6 23 -54 8 -54 -14 0 -32 23 -32 42 0 20 1 21 24 12z
m-404 -207 c0 -7 -7 -22 -15 -33 -13 -17 -14 -17 -15 -1 0 9 5 17 11 17 6 0 9
7 5 15 -3 8 -1 15 4 15 6 0 10 -6 10 -13z m68 -38 c-9 -6 -15 -2 -19 14 -3 15
0 24 10 28 20 8 28 -30 9 -42z m33 -37 c-6 -2 -11 -11 -12 -20 -1 -10 -4 -7
-8 8 -10 32 -3 44 16 28 10 -8 11 -14 4 -16z m-261 -17 c0 -8 -2 -15 -4 -15
-2 0 -6 7 -10 15 -3 8 -1 15 4 15 6 0 10 -7 10 -15z m480 -79 c10 -13 10 -16
-4 -16 -9 0 -16 5 -16 10 0 6 -12 10 -26 10 -22 0 -24 2 -14 15 13 16 36 8 60
-19z m-516 -66 c-29 -55 -57 -79 -47 -41 3 11 11 22 19 25 8 3 14 17 14 31 0
14 6 32 13 39 21 24 22 -14 1 -54z m422 21 c-3 -9 -8 -29 -12 -46 -4 -16 -16
-43 -26 -60 -10 -16 -18 -39 -18 -50 0 -12 -4 -25 -9 -30 -5 -6 -14 -28 -20
-50 -7 -22 -16 -49 -21 -60 -18 -43 -50 -172 -50 -200 0 -16 -9 -50 -20 -74
-11 -24 -20 -51 -20 -60 0 -10 -7 -26 -15 -37 -13 -18 -14 -18 -15 -1 0 10 6
30 14 45 7 15 16 56 20 91 3 36 10 67 15 70 14 10 51 120 51 151 0 17 5 30 10
30 6 0 10 10 10 23 0 12 7 40 14 62 9 27 11 46 5 57 -7 14 -6 18 5 18 15 0 36
29 36 49 0 6 -8 11 -17 11 -14 0 -13 3 5 23 12 13 22 33 22 44 0 16 5 20 20
16 13 -4 19 -11 16 -22z m-156 -22 c0 -11 -4 -17 -10 -14 -5 3 -10 13 -10 21
0 8 5 14 10 14 6 0 10 -9 10 -21z m-113 -761 c10 -12 13 -27 8 -50 -13 -61
-27 -67 -21 -10 4 43 2 53 -8 49 -10 -4 -12 0 -9 14 4 12 0 19 -9 19 -11 0
-14 8 -10 26 l5 27 15 -29 c8 -16 21 -37 29 -46z m149 -703 c11 -23 10 -24 -7
-14 -10 5 -19 16 -19 24 0 23 14 18 26 -10z m114 -145 c8 -14 8 -20 0 -20 -18
0 -50 20 -50 30 0 18 39 10 50 -10z m23 -249 c1 -43 -1 -74 -5 -68 -4 7 -8 8
-8 3 0 -15 -29 27 -30 43 0 8 7 22 16 32 13 15 14 24 5 50 -6 17 -8 36 -4 41
12 21 24 -23 26 -101z"/>
<path d="M2320 5280 c0 -5 5 -10 10 -10 6 0 10 5 10 10 0 6 -4 10 -10 10 -5 0
-10 -4 -10 -10z"/>
<path d="M6089 6196 c-2 -3 -31 -7 -64 -10 -46 -4 -76 -14 -124 -43 -182 -108
-280 -348 -311 -763 -14 -195 -13 -275 5 -293 8 -9 10 -17 5 -19 -15 -5 -24
-121 -12 -145 9 -16 28 -23 89 -31 43 -7 114 -18 158 -27 44 -8 88 -12 97 -9
9 3 31 -2 49 -11 19 -10 47 -15 70 -13 21 2 40 -1 42 -6 5 -16 27 4 27 25 0
14 -7 19 -27 20 -16 0 -22 3 -15 6 14 6 16 59 2 68 -5 3 -10 15 -10 27 0 14
-5 18 -16 14 -9 -3 -18 -6 -20 -6 -2 0 -4 -7 -4 -15 0 -9 -10 -15 -26 -15 -24
0 -24 1 -10 22 9 12 16 34 16 48 0 14 5 32 10 40 9 13 12 13 23 -1 6 -9 25
-18 41 -21 25 -5 30 -1 45 33 10 21 21 36 24 32 4 -3 7 11 7 33 0 21 5 75 11
119 10 66 17 85 40 108 16 15 29 32 29 37 0 11 48 -2 78 -21 26 -16 72 -103
72 -136 0 -12 8 -30 19 -40 10 -10 21 -29 25 -43 3 -14 3 -19 0 -12 -13 28
-24 8 -24 -44 0 -49 2 -55 15 -44 8 7 15 26 15 42 0 33 16 29 30 -8 6 -15 18
-24 30 -24 20 0 21 -1 4 -17 -13 -13 -19 -14 -22 -5 -6 18 -16 15 -46 -13 -25
-23 -26 -28 -26 -137 0 -118 -20 -272 -41 -309 -6 -12 -24 -33 -40 -47 -16
-13 -29 -30 -29 -37 0 -15 -64 -40 -80 -30 -5 3 -10 0 -10 -8 0 -22 -27 -41
-33 -25 -4 10 -8 10 -16 -2 -9 -13 -11 -13 -11 1 0 19 -20 29 -57 29 -23 0
-25 -3 -20 -32 2 -18 1 -103 -3 -188 -5 -85 -5 -229 -2 -320 l7 -165 40 0 c22
0 42 -2 45 -5 3 -3 23 -11 45 -19 122 -43 184 -140 204 -324 6 -53 11 -204 11
-336 1 -190 -3 -253 -15 -303 -28 -108 -70 -158 -133 -158 -41 0 -89 24 -96
47 -17 53 -28 233 -26 420 l2 212 -24 6 c-12 3 -68 -1 -123 -10 -55 -8 -176
-22 -268 -29 -93 -8 -171 -17 -175 -21 -4 -4 -8 -136 -10 -294 -3 -278 -2
-287 18 -311 11 -13 16 -26 11 -29 -14 -9 5 -252 25 -326 9 -33 20 -78 25
-100 5 -22 19 -65 31 -95 19 -49 38 -82 112 -197 23 -35 101 -86 161 -103 74
-21 286 6 345 45 8 5 41 22 73 37 62 30 168 111 234 179 156 164 293 459 344
738 27 149 26 175 -11 201 -16 12 -30 18 -30 14 0 -4 -6 0 -12 9 -15 19 -26
13 -52 -23 l-17 -25 7 30 c4 17 11 34 15 39 5 6 9 20 9 33 l0 23 33 -20 c36
-23 47 -25 47 -9 0 5 -4 8 -9 4 -5 -3 -12 -1 -16 4 -3 6 4 15 15 21 11 6 20
16 20 22 0 6 7 16 15 22 21 15 10 180 -12 172 -7 -3 -13 1 -13 10 0 8 -4 12
-10 9 -5 -3 -10 -17 -10 -30 0 -12 -7 -25 -15 -28 -11 -5 -12 -1 -5 17 6 17 4
30 -6 44 -16 24 -6 35 33 37 18 0 23 -5 23 -22 0 -13 5 -23 10 -23 16 0 12
337 -4 383 -8 20 -10 37 -5 37 35 0 -104 313 -148 333 -13 6 -23 16 -23 22 0
7 -11 20 -25 29 -23 15 -25 15 -26 -1 0 -10 -3 -13 -5 -6 -3 7 -12 9 -20 6 -8
-3 -14 0 -14 7 0 6 9 14 20 17 11 3 20 9 20 14 0 5 6 9 13 9 15 1 67 68 67 87
0 18 -10 16 -26 -4 -8 -11 -13 -13 -14 -5 0 16 -29 15 -36 -2 -3 -8 -15 -11
-29 -8 -25 4 -26 16 -9 70 5 18 -25 122 -36 122 -5 0 -11 -8 -13 -17 -4 -15
-5 -14 -6 3 -1 17 -6 20 -26 16 -18 -3 -25 0 -25 12 0 9 8 16 19 16 11 0 23 9
26 20 8 25 17 25 39 1 12 -14 29 -18 67 -17 28 1 53 -2 55 -6 3 -4 1 -8 -4 -8
-5 0 -14 -15 -20 -32 -8 -28 -10 -30 -11 -9 -1 20 -5 23 -30 18 -15 -3 -33 -1
-40 6 -14 14 -14 4 1 -44 11 -40 22 -49 31 -26 3 6 6 0 6 -15 1 -21 6 -28 21
-28 11 0 20 -7 20 -15 0 -20 16 -19 24 1 6 16 8 16 24 0 10 -9 24 -16 30 -16
16 0 24 37 13 59 -9 16 -8 18 8 14 15 -4 22 3 31 32 6 19 9 42 6 50 -3 8 0 20
7 27 7 7 13 24 14 38 0 14 6 43 12 65 10 39 14 491 4 508 -3 4 -11 3 -19 -4
-20 -17 -34 0 -27 32 4 20 10 25 24 22 24 -7 24 9 4 130 -27 167 -113 379
-169 420 -24 16 -25 16 -35 0 -10 -17 -10 -17 -11 0 0 9 -6 18 -12 19 -7 0
-18 2 -24 2 -20 2 -40 31 -54 77 -9 31 -18 45 -27 42 -7 -3 -13 2 -13 11 0 9
-4 16 -10 16 -5 0 -10 8 -10 19 0 10 -10 25 -21 33 -18 11 -20 20 -14 46 8 36
25 34 25 -4 0 -31 21 -73 49 -98 12 -11 21 -27 21 -37 0 -16 43 -59 60 -59 4
0 11 11 14 25 5 19 -2 39 -28 78 -33 50 -145 167 -161 167 -4 0 -16 11 -27 25
-11 14 -24 25 -29 25 -6 0 -36 18 -66 40 -39 28 -67 40 -90 40 -19 0 -45 7
-59 16 -13 9 -27 14 -31 11 -3 -4 -21 0 -40 8 -37 16 -47 18 -54 11z m162 -88
c-4 -12 -13 -23 -20 -24 -6 -1 -7 0 -1 3 5 2 10 13 10 24 0 10 4 19 10 19 5 0
6 -9 1 -22z m-176 -788 c4 -6 11 -7 17 -4 6 4 14 0 19 -7 16 -25 10 -28 -24
-14 l-34 14 -2 -45 c-1 -24 -3 -62 -4 -83 -2 -45 -20 -39 -19 6 1 122 5 143
23 143 10 0 21 -5 24 -10z m721 -199 c-1 -16 -4 -27 -8 -24 -11 6 -10 53 1 53
4 0 8 -13 7 -29z m44 -7 c0 -8 -4 -14 -9 -14 -11 0 -22 26 -14 34 9 9 23 -3
23 -20z m-1157 -26 c3 -9 -5 -13 -23 -13 -22 0 -26 3 -18 13 6 6 16 12 23 12
7 0 15 -6 18 -12z m1040 -173 c-3 -9 -8 -14 -10 -11 -3 3 -2 9 2 15 9 16 15
13 8 -4z m-8 -54 c-3 -6 -14 -10 -23 -10 -15 1 -15 2 1 6 9 2 17 9 17 15 0 6
3 9 6 5 3 -3 3 -10 -1 -16z m-88 -126 c-7 -17 -47 -8 -47 12 0 10 6 12 20 8
13 -4 20 -2 21 7 0 10 2 10 6 0 3 -7 2 -19 0 -27z m18 -194 c-3 -12 -11 -19
-16 -16 -5 4 -3 14 3 25 15 24 22 19 13 -9z m-157 -66 c1 -5 -6 -11 -17 -13
-16 -3 -21 -14 -26 -50 -10 -72 -16 -75 -10 -4 6 58 5 62 -15 62 -11 0 -20 -6
-20 -12 0 -9 -4 -8 -10 2 -5 8 -10 17 -10 20 0 10 105 5 108 -5z m69 -22 c-2
-5 -7 -17 -11 -27 -6 -19 -7 -19 -20 0 -8 10 -12 22 -10 26 7 10 46 10 41 1z
m102 -330 c1 -7 -3 -13 -9 -13 -5 0 -10 15 -9 33 0 27 2 29 9 12 5 -11 9 -26
9 -32z m-298 -127 c-6 -7 -20 -12 -30 -9 -13 3 -21 -1 -24 -14 -4 -15 -5 -15
-6 -1 0 9 4 20 9 23 6 3 10 19 10 35 0 38 22 44 39 9 11 -22 12 -31 2 -43z
m363 35 c3 -5 -1 -11 -9 -14 -9 -4 -12 -1 -8 9 6 16 10 17 17 5z m139 -130 c3
-12 -1 -22 -9 -25 -10 -4 -14 3 -14 25 0 32 14 32 23 0z m-239 -1394 c15 -21
17 -30 8 -39 -9 -9 -12 -9 -12 0 0 19 -28 14 -51 -10 l-21 -23 16 32 c9 18 16
42 16 53 0 27 18 22 44 -13z m-791 -71 c4 -10 1 -13 -8 -9 -8 3 -12 9 -9 14 7
12 11 11 17 -5z"/>
<path d="M3664 5196 c-3 -9 -4 -23 0 -31 3 -8 2 -15 -2 -15 -18 0 -32 -42 -26
-80 6 -34 10 -40 30 -40 23 0 24 2 24 84 0 79 -12 118 -26 82z"/>
<path d="M6137 5044 c-3 -3 -3 -12 0 -20 3 -8 -2 -21 -12 -28 -31 -22 -7 -96
31 -96 2 0 4 34 4 75 0 68 -6 86 -23 69z"/>
<path d="M4570 2610 c0 -5 5 -10 10 -10 6 0 10 5 10 10 0 6 -4 10 -10 10 -5 0
-10 -4 -10 -10z"/>
</g>
</svg>
